<mxfile host="app.diagrams.net" modified="2023-06-15T21:37:52.677Z" agent="Mozilla/5.0 (X11; Ubuntu; Linux x86_64; rv:109.0) Gecko/20100101 Firefox/114.0" etag="DKORHMOGCPy0A-0AtT3b" version="21.3.4" type="github">
  <diagram name="Página-1" id="ITYseyrZ9f1xuO-asXqx">
    <mxGraphModel dx="1258" dy="483" grid="1" gridSize="10" guides="1" tooltips="1" connect="1" arrows="1" fold="1" page="1" pageScale="1" pageWidth="827" pageHeight="1169" math="0" shadow="0">
      <root>
        <mxCell id="0" />
        <mxCell id="1" parent="0" />
        <mxCell id="QRj61w4ugsdSyOUNYav5-1" value="AutoCash" style="swimlane;whiteSpace=wrap;html=1;" parent="1" vertex="1">
          <mxGeometry x="128" y="181" width="590" height="569" as="geometry" />
        </mxCell>
        <mxCell id="aR0ydL9nbTO1Qae11mGj-3" style="edgeStyle=orthogonalEdgeStyle;rounded=0;orthogonalLoop=1;jettySize=auto;html=1;exitX=0;exitY=0.75;exitDx=0;exitDy=0;entryX=0.5;entryY=0;entryDx=0;entryDy=0;" edge="1" parent="QRj61w4ugsdSyOUNYav5-1" source="QRj61w4ugsdSyOUNYav5-6" target="QRj61w4ugsdSyOUNYav5-11">
          <mxGeometry relative="1" as="geometry" />
        </mxCell>
        <mxCell id="aR0ydL9nbTO1Qae11mGj-4" style="edgeStyle=orthogonalEdgeStyle;rounded=0;orthogonalLoop=1;jettySize=auto;html=1;exitX=0.25;exitY=1;exitDx=0;exitDy=0;" edge="1" parent="QRj61w4ugsdSyOUNYav5-1" source="QRj61w4ugsdSyOUNYav5-6" target="QRj61w4ugsdSyOUNYav5-10">
          <mxGeometry relative="1" as="geometry" />
        </mxCell>
        <mxCell id="aR0ydL9nbTO1Qae11mGj-5" style="edgeStyle=orthogonalEdgeStyle;rounded=0;orthogonalLoop=1;jettySize=auto;html=1;exitX=0.75;exitY=1;exitDx=0;exitDy=0;entryX=0.5;entryY=0;entryDx=0;entryDy=0;" edge="1" parent="QRj61w4ugsdSyOUNYav5-1" source="QRj61w4ugsdSyOUNYav5-6" target="aR0ydL9nbTO1Qae11mGj-1">
          <mxGeometry relative="1" as="geometry" />
        </mxCell>
        <mxCell id="aR0ydL9nbTO1Qae11mGj-6" style="edgeStyle=orthogonalEdgeStyle;rounded=0;orthogonalLoop=1;jettySize=auto;html=1;exitX=1;exitY=0.25;exitDx=0;exitDy=0;entryX=0.5;entryY=0;entryDx=0;entryDy=0;" edge="1" parent="QRj61w4ugsdSyOUNYav5-1" source="QRj61w4ugsdSyOUNYav5-6" target="QRj61w4ugsdSyOUNYav5-8">
          <mxGeometry relative="1" as="geometry" />
        </mxCell>
        <mxCell id="aR0ydL9nbTO1Qae11mGj-7" style="edgeStyle=orthogonalEdgeStyle;rounded=0;orthogonalLoop=1;jettySize=auto;html=1;exitX=1;exitY=0.75;exitDx=0;exitDy=0;" edge="1" parent="QRj61w4ugsdSyOUNYav5-1" source="QRj61w4ugsdSyOUNYav5-6" target="QRj61w4ugsdSyOUNYav5-9">
          <mxGeometry relative="1" as="geometry" />
        </mxCell>
        <mxCell id="QRj61w4ugsdSyOUNYav5-6" value="Tansações" style="rounded=0;whiteSpace=wrap;html=1;" parent="QRj61w4ugsdSyOUNYav5-1" vertex="1">
          <mxGeometry x="220" y="58" width="80" height="40" as="geometry" />
        </mxCell>
        <mxCell id="QRj61w4ugsdSyOUNYav5-8" value="Depositar" style="ellipse;whiteSpace=wrap;html=1;" parent="QRj61w4ugsdSyOUNYav5-1" vertex="1">
          <mxGeometry x="452" y="117" width="80" height="40" as="geometry" />
        </mxCell>
        <mxCell id="QRj61w4ugsdSyOUNYav5-9" value="Sacar" style="ellipse;whiteSpace=wrap;html=1;" parent="QRj61w4ugsdSyOUNYav5-1" vertex="1">
          <mxGeometry x="382" y="187" width="80" height="40" as="geometry" />
        </mxCell>
        <mxCell id="QRj61w4ugsdSyOUNYav5-10" value="Programar Pagamentos" style="ellipse;whiteSpace=wrap;html=1;" parent="QRj61w4ugsdSyOUNYav5-1" vertex="1">
          <mxGeometry x="152" y="187" width="80" height="40" as="geometry" />
        </mxCell>
        <mxCell id="QRj61w4ugsdSyOUNYav5-11" value="Emitir Extrato" style="ellipse;whiteSpace=wrap;html=1;" parent="QRj61w4ugsdSyOUNYav5-1" vertex="1">
          <mxGeometry x="62" y="147" width="80" height="40" as="geometry" />
        </mxCell>
        <mxCell id="QRj61w4ugsdSyOUNYav5-17" value="Solicitar Crédito" style="rounded=0;whiteSpace=wrap;html=1;" parent="QRj61w4ugsdSyOUNYav5-1" vertex="1">
          <mxGeometry x="246" y="282" width="80" height="40" as="geometry" />
        </mxCell>
        <mxCell id="QRj61w4ugsdSyOUNYav5-33" style="edgeStyle=orthogonalEdgeStyle;rounded=0;orthogonalLoop=1;jettySize=auto;html=1;exitX=0;exitY=0.5;exitDx=0;exitDy=0;entryX=1;entryY=0.25;entryDx=0;entryDy=0;" parent="QRj61w4ugsdSyOUNYav5-1" source="QRj61w4ugsdSyOUNYav5-26" target="QRj61w4ugsdSyOUNYav5-32" edge="1">
          <mxGeometry relative="1" as="geometry">
            <Array as="points">
              <mxPoint x="335" y="420" />
            </Array>
          </mxGeometry>
        </mxCell>
        <mxCell id="QRj61w4ugsdSyOUNYav5-26" value="InserirConta" style="ellipse;whiteSpace=wrap;html=1;" parent="QRj61w4ugsdSyOUNYav5-1" vertex="1">
          <mxGeometry x="335" y="380" width="80" height="40" as="geometry" />
        </mxCell>
        <mxCell id="QRj61w4ugsdSyOUNYav5-34" style="edgeStyle=orthogonalEdgeStyle;rounded=0;orthogonalLoop=1;jettySize=auto;html=1;exitX=0;exitY=0.5;exitDx=0;exitDy=0;entryX=1;entryY=0.75;entryDx=0;entryDy=0;" parent="QRj61w4ugsdSyOUNYav5-1" source="QRj61w4ugsdSyOUNYav5-27" target="QRj61w4ugsdSyOUNYav5-32" edge="1">
          <mxGeometry relative="1" as="geometry">
            <Array as="points">
              <mxPoint x="329" y="440" />
            </Array>
          </mxGeometry>
        </mxCell>
        <mxCell id="QRj61w4ugsdSyOUNYav5-27" value="ExcluirConta" style="ellipse;whiteSpace=wrap;html=1;" parent="QRj61w4ugsdSyOUNYav5-1" vertex="1">
          <mxGeometry x="329" y="460" width="80" height="40" as="geometry" />
        </mxCell>
        <mxCell id="QRj61w4ugsdSyOUNYav5-32" value="Clientes" style="rounded=0;whiteSpace=wrap;html=1;" parent="QRj61w4ugsdSyOUNYav5-1" vertex="1">
          <mxGeometry x="155" y="410" width="80" height="40" as="geometry" />
        </mxCell>
        <mxCell id="aR0ydL9nbTO1Qae11mGj-1" value="Realizar pagamento" style="ellipse;whiteSpace=wrap;html=1;" vertex="1" parent="QRj61w4ugsdSyOUNYav5-1">
          <mxGeometry x="272" y="177" width="80" height="40" as="geometry" />
        </mxCell>
        <mxCell id="aR0ydL9nbTO1Qae11mGj-13" style="edgeStyle=orthogonalEdgeStyle;rounded=0;orthogonalLoop=1;jettySize=auto;html=1;exitX=1;exitY=1;exitDx=0;exitDy=0;exitPerimeter=0;entryX=1;entryY=0.675;entryDx=0;entryDy=0;entryPerimeter=0;" edge="1" parent="1" source="QRj61w4ugsdSyOUNYav5-2" target="QRj61w4ugsdSyOUNYav5-26">
          <mxGeometry relative="1" as="geometry" />
        </mxCell>
        <mxCell id="aR0ydL9nbTO1Qae11mGj-16" style="edgeStyle=orthogonalEdgeStyle;rounded=0;orthogonalLoop=1;jettySize=auto;html=1;exitX=1;exitY=1;exitDx=0;exitDy=0;exitPerimeter=0;entryX=1;entryY=0.5;entryDx=0;entryDy=0;" edge="1" parent="1" source="QRj61w4ugsdSyOUNYav5-2" target="QRj61w4ugsdSyOUNYav5-27">
          <mxGeometry relative="1" as="geometry" />
        </mxCell>
        <mxCell id="QRj61w4ugsdSyOUNYav5-2" value="Gerente" style="shape=umlActor;verticalLabelPosition=bottom;verticalAlign=top;html=1;outlineConnect=0;" parent="1" vertex="1">
          <mxGeometry x="738" y="421" width="30" height="60" as="geometry" />
        </mxCell>
        <mxCell id="aR0ydL9nbTO1Qae11mGj-11" style="edgeStyle=orthogonalEdgeStyle;rounded=0;orthogonalLoop=1;jettySize=auto;html=1;exitX=1;exitY=1;exitDx=0;exitDy=0;exitPerimeter=0;entryX=0;entryY=0.5;entryDx=0;entryDy=0;" edge="1" parent="1" source="QRj61w4ugsdSyOUNYav5-5" target="QRj61w4ugsdSyOUNYav5-17">
          <mxGeometry relative="1" as="geometry" />
        </mxCell>
        <mxCell id="aR0ydL9nbTO1Qae11mGj-15" style="edgeStyle=orthogonalEdgeStyle;rounded=0;orthogonalLoop=1;jettySize=auto;html=1;exitX=1;exitY=0.3333333333333333;exitDx=0;exitDy=0;exitPerimeter=0;entryX=0;entryY=0.25;entryDx=0;entryDy=0;" edge="1" parent="1" source="QRj61w4ugsdSyOUNYav5-5" target="QRj61w4ugsdSyOUNYav5-6">
          <mxGeometry relative="1" as="geometry">
            <Array as="points">
              <mxPoint x="170" y="391" />
              <mxPoint x="170" y="249" />
            </Array>
          </mxGeometry>
        </mxCell>
        <mxCell id="QRj61w4ugsdSyOUNYav5-5" value="Cliente" style="shape=umlActor;verticalLabelPosition=bottom;verticalAlign=top;html=1;outlineConnect=0;" parent="1" vertex="1">
          <mxGeometry x="58" y="371" width="30" height="60" as="geometry" />
        </mxCell>
        <mxCell id="QRj61w4ugsdSyOUNYav5-44" value="&lt;font style=&quot;font-size: 24px;&quot;&gt;&lt;span id=&quot;page14R_mcid0&quot; class=&quot;markedContent&quot;&gt;&lt;/span&gt;&lt;font face=&quot;Times New Roman&quot;&gt;&lt;span id=&quot;page14R_mcid1&quot; class=&quot;markedContent&quot;&gt;&lt;br role=&quot;presentation&quot;&gt;&lt;b&gt;&lt;span dir=&quot;ltr&quot; role=&quot;presentation&quot; style=&quot;left: calc(var(--scale-factor)*222.90px); top: calc(var(--scale-factor)*69.41px); transform: scaleX(0.90005);&quot;&gt;Projeto ATM - Diagrama&lt;/span&gt;&lt;/b&gt;&lt;/span&gt;&lt;span id=&quot;page14R_mcid2&quot; class=&quot;markedContent&quot;&gt;&lt;b&gt;&lt;span dir=&quot;ltr&quot; role=&quot;presentation&quot; style=&quot;left: calc(var(--scale-factor)*275.97px); top: calc(var(--scale-factor)*85.97px); transform: scaleX(0.922761);&quot;&gt; de Caso de Uso&lt;/span&gt;&lt;/b&gt;&lt;/span&gt;&lt;/font&gt;&lt;/font&gt;" style="text;html=1;align=center;verticalAlign=middle;resizable=0;points=[];autosize=1;strokeColor=none;fillColor=none;" parent="1" vertex="1">
          <mxGeometry x="194" y="40" width="440" height="80" as="geometry" />
        </mxCell>
        <mxCell id="aR0ydL9nbTO1Qae11mGj-10" style="edgeStyle=orthogonalEdgeStyle;rounded=0;orthogonalLoop=1;jettySize=auto;html=1;exitX=0;exitY=0.5;exitDx=0;exitDy=0;" edge="1" parent="1" source="QRj61w4ugsdSyOUNYav5-32" target="QRj61w4ugsdSyOUNYav5-5">
          <mxGeometry relative="1" as="geometry" />
        </mxCell>
      </root>
    </mxGraphModel>
  </diagram>
</mxfile>
